<svg xmlns="http://www.w3.org/2000/svg" width="256" height="256" viewBox="0 0 100 100"><rect width="100" height="100" rx="20" fill="#7a75ad"></rect><path fill="#fff" d="M66.88 69.08L66.88 69.08Q69.22 67.37 71.11 64.89Q73.00 62.42 74.30 62.42Q75.61 62.42 75.61 66.33Q75.61 70.25 73.40 73.72Q71.19 77.18 67.59 79.52L67.59 79.52Q60.22 84.38 50.14 84.38L50.14 84.38Q37.89 84.38 31.15 78.26Q24.39 72.14 24.39 61.25L24.39 61.25Q24.39 47.84 30.88 35.78L30.88 35.78Q33.03 31.82 35.73 28.49L35.73 28.49Q33.66 26.06 32.45 23.41Q31.23 20.75 31.23 19.40L31.23 19.40Q31.23 16.97 33.03 16.97L33.03 16.97Q34.30 17.06 35.91 18.68L35.91 18.68L38.70 21.38Q39.78 22.46 40.95 23.18L40.95 23.18Q49.86 15.62 60.17 15.62Q70.47 15.62 73.53 21.38L73.53 21.38Q74.61 23.54 74.61 26.69L74.61 26.69Q74.61 31.46 70.47 34.70Q66.33 37.94 59.36 37.94Q52.39 37.94 44.91 35.06L44.91 35.06Q38.52 45.95 38.52 57.83L38.52 57.83Q38.52 74.30 51.67 74.30L51.67 74.30Q59.77 74.30 66.88 69.08ZM49.23 29.48L49.23 29.48Q53.83 31.01 59.22 31.01Q64.63 31.01 64.63 28.04L64.63 28.04Q64.63 24.53 60.22 24.53L60.22 24.53Q54.19 24.53 49.23 29.48Z"></path></svg>